<?xml version="1.0" standalone="no"?>
<!DOCTYPE svg PUBLIC "-//W3C//DTD SVG 20010904//EN"
 "http://www.w3.org/TR/2001/REC-SVG-20010904/DTD/svg10.dtd">
<svg version="1.0" xmlns="http://www.w3.org/2000/svg"
 width="499.000000pt" height="462.000000pt" viewBox="0 0 499.000000 462.000000"
 preserveAspectRatio="xMidYMid meet">

<g transform="translate(0.000000,462.000000) scale(0.100000,-0.100000)"
fill="#000000" stroke="none">
<path d="M1504 3498 c3 -13 194 -549 424 -1193 l418 -1170 153 0 154 0 419
1170 c230 644 421 1180 424 1193 l6 23 -158 -3 -159 -3 -242 -690 c-314 -895
-374 -1074 -409 -1222 -16 -68 -32 -123 -35 -123 -4 0 -10 17 -13 38 -20 113
-108 379 -368 1122 -160 454 -295 837 -300 853 l-10 27 -155 0 -155 0 6 -22z"/>
</g>
</svg>
